<svg width="40" height="41" viewBox="0 0 40 41" fill="none" xmlns="http://www.w3.org/2000/svg">
<g clip-path="url(#clip0_12_795)">
<path d="M30.34 38.9488L28.4974 36.0094L22.3991 26.4013L20.5565 23.4619C20.5126 23.3741 20.381 23.2864 20.2932 23.2864H20.2055C20.1178 23.2864 20.03 23.3303 19.9861 23.3741L18.2751 24.4709C18.1874 24.5148 18.0996 24.6464 18.0996 24.7342C18.0557 24.8658 18.0996 24.9535 18.1435 25.0852L19.9861 28.0246L26.0405 37.5888L27.8832 40.5282C27.927 40.616 28.0587 40.7037 28.1464 40.7037H28.2341C28.3219 40.7037 28.4096 40.6599 28.4535 40.616L30.1645 39.5192C30.4278 39.3876 30.4716 39.1243 30.34 38.9488ZM20.2055 23.6812L21.8288 26.2697L20.0739 27.3665L18.4506 24.7781L20.2055 23.6812ZM28.2341 40.265L26.6109 37.6765L28.3219 36.5797L29.9452 39.1682L28.2341 40.265ZM18.4506 12.6693L14.8531 6.96586L14.6776 6.61489L10.9923 0.82373L13.2737 7.27297L13.4053 7.62395L14.1072 9.64208L9.58838 10.4318L18.4506 22.4528L14.7214 12.6693H18.4506Z" fill="url(#paint0_linear_12_795)"/>
</g>
<defs>
<linearGradient id="paint0_linear_12_795" x1="20.0001" y1="0.82373" x2="20.0001" y2="40.7037" gradientUnits="userSpaceOnUse">
<stop stop-color="#DDAE3C"/>
<stop offset="1" stop-color="#41386B"/>
</linearGradient>
<clipPath id="clip0_12_795">
<rect width="40" height="40" fill="white" transform="translate(0 0.763733)"/>
</clipPath>
</defs>
</svg>
