<svg width="225" height="56" viewBox="0 0 225 56" fill="none" xmlns="http://www.w3.org/2000/svg">
<g clip-path="url(#clip0_4_347)">
<path d="M29.0792 53.4246L26.4971 49.3056L17.9517 35.8418L15.3696 31.7228C15.3081 31.5998 15.1237 31.4769 15.0007 31.4769H14.8777C14.7548 31.4769 14.6318 31.5383 14.5703 31.5998L12.1727 33.1368C12.0497 33.1983 11.9268 33.3827 11.9268 33.5057C11.8653 33.6901 11.9268 33.813 11.9883 33.9975L14.5703 38.1165L23.0543 51.5188L25.6364 55.6378C25.6979 55.7608 25.8824 55.8837 26.0053 55.8837H26.1283C26.2512 55.8837 26.3742 55.8223 26.4357 55.7608L28.8333 54.2238C29.2022 54.0394 29.2637 53.6705 29.0792 53.4246ZM14.8777 32.0302L17.1524 35.6574L14.6933 37.1943L12.4186 33.5671L14.8777 32.0302ZM26.1283 55.269L23.8536 51.6417L26.2512 50.1048L28.5259 53.732L26.1283 55.269ZM12.4186 16.5991L7.37739 8.60696L7.13148 8.11513L1.9673 0L5.16417 9.03731L5.34861 9.52913L6.33226 12.3571L0 13.4637L12.4186 30.3088L7.19296 16.5991H12.4186Z" fill="url(#paint0_linear_4_347)"/>
<path d="M38.9594 15.763H43.4916L47.0097 26.8347L52.5973 15.763H57.0053L55.2255 34.6366H52.0178L53.3216 20.44L47.465 32.6085H45.4162L41.7325 19.964L40.3667 34.6366H37.1797L38.9594 15.763ZM65.2832 26.3794C66.1385 26.3794 67.1733 26.5519 68.3874 26.8968L68.5322 25.5723C68.546 25.4343 68.5529 25.3033 68.5529 25.1791V24.8687C68.5529 24.1375 68.3943 23.5994 68.077 23.2545C67.7596 22.8958 67.2354 22.7164 66.5042 22.7164C65.7729 22.7164 65.1728 22.8958 64.7037 23.2545C64.2484 23.6132 63.9794 24.103 63.8966 24.7238H60.4199C60.5992 23.1234 61.2339 21.9576 62.3238 21.2264C63.4137 20.509 64.8072 20.1503 66.5042 20.1503C69.9947 20.1503 71.7399 21.7231 71.7399 24.8687V25.2412C71.7399 25.3792 71.733 25.524 71.7192 25.6758L70.8707 34.6366H68.1183C68.0908 34.3193 68.077 34.0089 68.077 33.7054C68.077 33.4018 68.0632 33.0845 68.0356 32.7534C67.0284 34.271 65.7178 35.0298 64.1036 35.0298C62.5584 35.0298 61.3719 34.6366 60.5441 33.8502C59.7715 33.119 59.3852 32.1601 59.3852 30.9736C59.3852 29.4284 59.9784 28.2557 61.1649 27.4555C62.1996 26.7381 63.5724 26.3794 65.2832 26.3794ZM68.1804 29.1525C67.2561 28.849 66.4835 28.6972 65.8626 28.6972C65.2418 28.6972 64.7727 28.7317 64.4554 28.8007C64.1381 28.8835 63.8552 29.0007 63.6069 29.1525C63.0412 29.4974 62.7584 29.9527 62.7584 30.5184C62.7584 31.084 62.9447 31.5255 63.3172 31.8428C63.6897 32.1739 64.1656 32.3395 64.7451 32.3395C65.3245 32.3395 65.7867 32.2567 66.1316 32.0912C66.4904 31.9256 66.8146 31.698 67.1043 31.4082C67.7113 30.815 68.0701 30.0631 68.1804 29.1525ZM81.2388 20.1503C82.8668 20.1503 84.0878 20.5504 84.9018 21.3506C85.7158 22.1508 86.0745 23.1579 85.9779 24.372H82.9979C82.9979 23.9305 82.8323 23.5718 82.5012 23.2959C82.1701 23.0338 81.6734 22.9027 81.0112 22.9027C80.3627 22.9027 79.8454 23.0407 79.4591 23.3166C79.0728 23.5925 78.8589 23.9236 78.8175 24.3099C78.7347 24.9722 79.1693 25.455 80.1213 25.7586L83.0806 27.0416C84.005 27.4141 84.7086 27.8832 85.1915 28.4489C85.6744 29.0145 85.8813 29.663 85.8124 30.3942C85.7434 31.1392 85.5571 31.7738 85.2536 32.2981C84.9363 32.8362 84.5224 33.3053 84.0119 33.7054C82.8806 34.5883 81.4803 35.0298 79.8109 35.0298C78.1277 35.0298 76.8032 34.6228 75.8375 33.8088C74.8717 32.981 74.4578 31.8152 74.5958 30.3114H77.5345C77.4793 30.9874 77.6586 31.4841 78.0725 31.8014C78.4864 32.105 79.0659 32.2567 79.8109 32.2567C80.5421 32.2567 81.1215 32.105 81.5492 31.8014C81.9631 31.4841 82.1977 31.1185 82.2529 30.7046C82.2942 30.2907 82.2046 29.9803 81.9838 29.7733C81.7493 29.5526 81.3699 29.3457 80.8456 29.1525L78.1553 28.035C76.1824 27.221 75.2925 25.9241 75.4857 24.1444C75.596 22.9303 76.1686 21.9645 77.2033 21.2471C78.2657 20.5159 79.6108 20.1503 81.2388 20.1503ZM96.0563 31.8014L96.2839 34.2848C95.1112 34.7815 94.1868 35.0298 93.5108 35.0298C92.8348 35.0298 92.2553 34.947 91.7724 34.7815C91.2896 34.6021 90.8757 34.34 90.5308 33.9951C89.772 33.2225 89.4684 32.1188 89.6202 30.6839L90.3445 22.8613H88.6061L88.8338 20.5228H90.5721L90.924 16.8391H94.1109L93.7591 20.5228H97.1531L96.9254 22.8613H93.5108L92.8072 30.5804C92.6968 31.698 93.1314 32.2567 94.1109 32.2567C94.6214 32.2567 95.2699 32.105 96.0563 31.8014ZM110.108 28.4696H101.934C101.92 28.5662 101.913 28.6627 101.913 28.7593C101.913 28.8559 101.913 28.9525 101.913 29.049C101.913 29.9872 102.12 30.746 102.534 31.3255C102.948 31.9049 103.499 32.1946 104.189 32.1946C105.61 32.1946 106.473 31.6083 106.776 30.4356H109.984C109.68 31.7876 108.99 32.8845 107.914 33.726C106.824 34.5952 105.576 35.0298 104.169 35.0298C102.637 35.0298 101.375 34.4504 100.381 33.2915C99.3467 32.1188 98.8294 30.5598 98.8294 28.6144C98.8294 26.407 99.4226 24.4755 100.609 22.8199C101.865 21.0402 103.513 20.1503 105.555 20.1503C107.156 20.1503 108.383 20.7297 109.239 21.8886C110.025 22.9234 110.418 24.2754 110.418 25.9448C110.418 26.7312 110.315 27.5728 110.108 28.4696ZM105.265 22.9648C104.451 22.9648 103.775 23.2683 103.237 23.8753C102.699 24.4962 102.341 25.2826 102.161 26.2345H107.48C107.494 26.138 107.5 26.0414 107.5 25.9448C107.5 25.8482 107.5 25.6827 107.5 25.4481C107.5 25.2136 107.466 24.9377 107.397 24.6204C107.328 24.303 107.211 24.0202 107.045 23.7719C106.673 23.2338 106.079 22.9648 105.265 22.9648ZM122.297 20.4607L121.925 23.9995C121.538 23.9029 121.076 23.8546 120.538 23.8546C118.496 23.8546 117.33 25.393 117.041 28.4696L116.461 34.6366H113.274L114.599 20.5021H117.786L117.517 23.2959C117.986 22.2612 118.545 21.4954 119.193 20.9988C119.841 20.5021 120.524 20.2538 121.242 20.2538C121.587 20.2538 121.938 20.3227 122.297 20.4607ZM132.541 15.3905C134.887 15.3905 136.673 16.2114 137.901 17.8532C139.184 19.5501 139.674 21.9921 139.37 25.1791C139.081 28.3937 138.122 30.8702 136.494 32.6085C134.99 34.2227 133.052 35.0298 130.679 35.0298C128.347 35.0298 126.56 34.202 125.319 32.5464C124.063 30.8495 123.587 28.3937 123.891 25.1791C124.18 21.9783 125.132 19.5157 126.747 17.7911C128.223 16.1907 130.154 15.3905 132.541 15.3905ZM136.059 25.2205C136.28 23.0958 136.039 21.4541 135.335 20.2952C134.631 19.1362 133.603 18.5568 132.251 18.5568C130.899 18.5568 129.761 19.1431 128.837 20.3158C127.926 21.4748 127.367 23.1165 127.16 25.2412C126.954 27.3659 127.202 29.0007 127.905 30.1459C128.595 31.2772 129.623 31.8428 130.989 31.8428C132.341 31.8428 133.472 31.2703 134.383 30.1252C135.294 28.98 135.852 27.3452 136.059 25.2205ZM150.98 14.8524L150.111 17.5634C149.628 17.3979 149.2 17.3151 148.828 17.3151C148.455 17.3151 148.11 17.4324 147.793 17.6669C147.476 17.9153 147.283 18.3429 147.214 18.95L147.069 20.5228H149.387L149.159 22.9027H146.841L145.765 34.6366H142.578L143.654 22.9027H141.812L142.04 20.5228H143.882L144.068 18.9293C144.206 17.4807 144.696 16.3632 145.537 15.5767C146.269 14.8731 147.207 14.5213 148.352 14.5213C149.18 14.5213 150.056 14.6317 150.98 14.8524ZM153.443 15.763H157.996L161.514 26.8347L167.101 15.763H171.509L169.73 34.6366H166.522L167.826 20.44L161.969 32.6085H159.92L156.237 19.964L154.871 34.6366H151.684L153.443 15.763ZM179.787 26.3794C180.643 26.3794 181.677 26.5519 182.891 26.8968L183.036 25.5723C183.05 25.4343 183.057 25.3033 183.057 25.1791V24.8687C183.057 24.1375 182.898 23.5994 182.581 23.2545C182.264 22.8958 181.739 22.7164 181.008 22.7164C180.277 22.7164 179.677 22.8958 179.208 23.2545C178.739 23.6132 178.47 24.103 178.401 24.7238H174.924C175.09 23.1234 175.717 21.9576 176.807 21.2264C177.911 20.509 179.311 20.1503 181.008 20.1503C184.499 20.1503 186.244 21.7231 186.244 24.8687V25.2412C186.244 25.3792 186.237 25.524 186.223 25.6758L185.375 34.6366H182.622C182.581 34.3193 182.56 34.0089 182.56 33.7054C182.56 33.4018 182.553 33.0845 182.54 32.7534C181.532 34.271 180.222 35.0298 178.608 35.0298C177.062 35.0298 175.869 34.6366 175.027 33.8502C174.255 33.119 173.869 32.1601 173.869 30.9736C173.869 29.4284 174.469 28.2557 175.669 27.4555C176.69 26.7381 178.063 26.3794 179.787 26.3794ZM182.684 29.1525C181.76 28.849 180.988 28.6972 180.367 28.6972C179.746 28.6972 179.277 28.7317 178.959 28.8007C178.642 28.8835 178.359 29.0007 178.111 29.1525C177.545 29.4974 177.262 29.9527 177.262 30.5184C177.262 31.084 177.449 31.5255 177.821 31.8428C178.18 32.1739 178.649 32.3395 179.228 32.3395C179.808 32.3395 180.277 32.2567 180.636 32.0912C180.994 31.9256 181.319 31.698 181.608 31.4082C182.215 30.815 182.574 30.0631 182.684 29.1525ZM191.459 28.8421C190.645 28.0281 190.238 27.0003 190.238 25.7586C190.238 24.0892 190.866 22.7233 192.121 21.661C193.308 20.6539 194.681 20.1503 196.24 20.1503C197.343 20.1503 198.35 20.4193 199.261 20.9574C199.496 19.8537 200.013 18.9569 200.813 18.2671C201.586 17.591 202.476 17.253 203.483 17.253L203.027 20.647C201.537 20.647 200.717 21.1781 200.565 22.2405C201.061 22.9855 201.31 23.7926 201.31 24.6617C201.31 25.5309 201.137 26.3104 200.792 27.0003C200.447 27.6901 199.992 28.2764 199.427 28.7593C198.226 29.7527 196.847 30.2493 195.288 30.2493C194.501 30.2493 193.756 30.1183 193.053 29.8561C192.28 30.1596 191.894 30.6494 191.894 31.3255C191.894 32.0981 192.501 32.4844 193.715 32.4844H197.916C200.648 32.4844 202.013 33.4777 202.013 35.4644C202.013 37.3683 201.13 38.9549 199.364 40.2242C197.805 41.3693 196.039 41.9419 194.067 41.9419C192.025 41.9419 190.397 41.4935 189.183 40.5967C188.079 39.7827 187.527 38.7342 187.527 37.4511C187.527 36.0715 188.141 35.0712 189.369 34.4504C189.728 34.2848 190.086 34.1744 190.445 34.1192C189.603 33.4708 189.183 32.7189 189.183 31.8635C189.183 31.0081 189.417 30.3321 189.886 29.8354C190.355 29.3388 190.88 29.0076 191.459 28.8421ZM193.384 34.9884C192.639 34.9884 192.004 35.1747 191.48 35.5472C190.942 35.9197 190.673 36.4302 190.673 37.0786C190.673 37.727 190.997 38.2237 191.645 38.5686C192.28 38.9135 193.177 39.086 194.336 39.086C195.439 39.086 196.426 38.817 197.295 38.2789C198.316 37.6856 198.826 36.9061 198.826 35.9404C198.826 35.6507 198.73 35.4161 198.537 35.2368C198.344 35.0712 198.061 34.9884 197.688 34.9884H193.384ZM198.123 24.8687C198.123 23.3649 197.378 22.613 195.888 22.613C195.101 22.613 194.487 22.8889 194.046 23.4408C193.618 24.0064 193.404 24.6686 193.404 25.4275C193.404 26.9865 194.129 27.766 195.577 27.766C196.433 27.766 197.067 27.4762 197.481 26.8968C197.909 26.3173 198.123 25.6413 198.123 24.8687ZM205.366 34.6366L206.711 20.5021H209.857L208.532 34.6366H205.366ZM206.711 16.0113C206.78 15.3905 207.008 14.8938 207.394 14.5213C207.767 14.135 208.263 13.9419 208.884 13.9419C209.491 13.9419 209.946 14.135 210.25 14.5213C210.553 14.8938 210.678 15.3974 210.622 16.032C210.581 16.6529 210.367 17.1427 209.981 17.5014C209.595 17.8739 209.091 18.0601 208.47 18.0601C207.877 18.0601 207.422 17.8739 207.104 17.5014C206.801 17.1427 206.67 16.646 206.711 16.0113ZM214.906 22.7785C215.458 21.9921 216.155 21.3575 216.996 20.8746C217.838 20.3917 218.742 20.1503 219.707 20.1503C220.673 20.1503 221.46 20.3021 222.067 20.6056C222.674 20.9229 223.184 21.3299 223.598 21.8266C224.384 22.8061 224.778 24.0064 224.778 25.4275H221.529C221.46 24.848 221.266 24.3513 220.949 23.9374C220.646 23.5373 220.183 23.3373 219.563 23.3373C218.445 23.3373 217.597 23.9443 217.017 25.1584C216.576 26.0828 216.355 27.1382 216.355 28.3247C216.355 29.5112 216.582 30.3942 217.038 30.9736C217.507 31.5531 218.1 31.8428 218.818 31.8428C219.549 31.8428 220.107 31.6359 220.494 31.222C220.88 30.8081 221.115 30.2631 221.197 29.5871H224.384C224.219 31.1737 223.639 32.4499 222.646 33.4156C221.542 34.4918 220.156 35.0298 218.486 35.0298C216.941 35.0298 215.679 34.4504 214.699 33.2915C213.651 32.0636 213.126 30.4908 213.126 28.5731C213.126 26.338 213.72 24.4065 214.906 22.7785Z" fill="#EEEEE7"/>
</g>
<defs>
<linearGradient id="paint0_linear_4_347" x1="14.59" y1="0" x2="14.59" y2="55.8837" gradientUnits="userSpaceOnUse">
<stop stop-color="#DDAE3C"/>
<stop offset="1" stop-color="#41386B"/>
</linearGradient>
<clipPath id="clip0_4_347">
<rect width="224.778" height="55.8837" fill="white"/>
</clipPath>
</defs>
</svg>
