<svg width="190" height="41" viewBox="0 0 190 41" fill="none" xmlns="http://www.w3.org/2000/svg">
<g clip-path="url(#clip0_12_778)">
<path d="M20.7516 39.0088L18.909 36.0694L12.8107 26.4613L10.9681 23.5219C10.9242 23.4341 10.7926 23.3464 10.7049 23.3464H10.6171C10.5294 23.3464 10.4416 23.3903 10.3978 23.4341L8.68673 24.5309C8.59899 24.5748 8.51124 24.7064 8.51124 24.7942C8.46737 24.9258 8.51124 25.0135 8.55511 25.1452L10.3978 28.0846L16.4521 37.6488L18.2948 40.5882C18.3387 40.676 18.4703 40.7637 18.558 40.7637H18.6458C18.7335 40.7637 18.8213 40.7199 18.8651 40.676L20.5761 39.5792C20.8394 39.4476 20.8833 39.1843 20.7516 39.0088ZM10.6171 23.7412L12.2404 26.3297L10.4855 27.4265L8.86222 24.8381L10.6171 23.7412ZM18.6458 40.325L17.0225 37.7365L18.7335 36.6397L20.3568 39.2282L18.6458 40.325ZM8.86222 12.7293L5.26469 7.02586L5.0892 6.67488L1.40392 0.883728L3.68528 7.33297L3.8169 7.68395L4.51886 9.70208L0 10.4918L8.86222 22.5128L5.13307 12.7293H8.86222Z" fill="url(#paint0_linear_12_778)"/>
<path d="M30.3492 10.3847H34.2339L37.2495 19.8747L42.0388 10.3847H45.8171L44.2916 26.5621H41.5421L42.6597 14.3936L37.6397 24.8237H35.8836L32.7262 13.9856L31.5554 26.5621H28.8237L30.3492 10.3847ZM52.9124 19.4845C53.6456 19.4845 54.5325 19.6323 55.5732 19.9279L55.6973 18.7927C55.7092 18.6744 55.7151 18.5621 55.7151 18.4557V18.1896C55.7151 17.5628 55.5791 17.1016 55.3071 16.806C55.0351 16.4985 54.5857 16.3448 53.959 16.3448C53.3322 16.3448 52.8178 16.4985 52.4158 16.806C52.0255 17.1135 51.7949 17.5333 51.724 18.0654H48.7439C48.8976 16.6936 49.4416 15.6944 50.3758 15.0676C51.3101 14.4527 52.5044 14.1452 53.959 14.1452C56.9509 14.1452 58.4468 15.4934 58.4468 18.1896V18.5089C58.4468 18.6271 58.4409 18.7513 58.4291 18.8814L57.7018 26.5621H55.3426C55.3189 26.2901 55.3071 26.024 55.3071 25.7639C55.3071 25.5037 55.2953 25.2317 55.2716 24.9479C54.4084 26.2487 53.2849 26.8991 51.9013 26.8991C50.5769 26.8991 49.5599 26.5621 48.8503 25.888C48.1881 25.2613 47.857 24.4394 47.857 23.4224C47.857 22.0979 48.3655 21.0928 49.3825 20.4069C50.2694 19.7919 51.4461 19.4845 52.9124 19.4845ZM55.3958 21.8614C54.6035 21.6013 53.9413 21.4712 53.4091 21.4712C52.8769 21.4712 52.4749 21.5007 52.2029 21.5599C51.9309 21.6308 51.6885 21.7313 51.4756 21.8614C50.9908 22.1571 50.7483 22.5473 50.7483 23.0322C50.7483 23.517 50.908 23.8954 51.2273 24.1674C51.5466 24.4512 51.9546 24.5931 52.4512 24.5931C52.9479 24.5931 53.3441 24.5222 53.6397 24.3803C53.9472 24.2384 54.2251 24.0432 54.4734 23.7949C54.9937 23.2864 55.3012 22.6419 55.3958 21.8614ZM66.5887 14.1452C67.9841 14.1452 69.0307 14.4882 69.7284 15.1741C70.4261 15.8599 70.7336 16.7232 70.6508 17.7639H68.0965C68.0965 17.3854 67.9546 17.078 67.6707 16.8415C67.3869 16.6168 66.9612 16.5044 66.3936 16.5044C65.8378 16.5044 65.3943 16.6227 65.0632 16.8592C64.7321 17.0957 64.5488 17.3795 64.5133 17.7106C64.4424 18.2783 64.8149 18.6922 65.6308 18.9523L68.1674 20.0521C68.9597 20.3714 69.5628 20.7735 69.9767 21.2583C70.3906 21.7432 70.568 22.299 70.5089 22.9257C70.4497 23.5643 70.2901 24.1083 70.0299 24.5577C69.758 25.0189 69.4032 25.4209 68.9656 25.7639C67.9959 26.5207 66.7956 26.8991 65.3648 26.8991C63.922 26.8991 62.7868 26.5503 61.959 25.8526C61.1312 25.143 60.7764 24.1438 60.8947 22.8548H63.4135C63.3662 23.4342 63.52 23.8599 63.8747 24.1319C64.2295 24.3921 64.7262 24.5222 65.3648 24.5222C65.9915 24.5222 66.4882 24.3921 66.8548 24.1319C67.2095 23.8599 67.4106 23.5466 67.4579 23.1918C67.4934 22.837 67.4165 22.571 67.2273 22.3936C67.0262 22.2044 66.701 22.027 66.2517 21.8614L63.9457 20.9036C62.2546 20.2058 61.4919 19.0942 61.6574 17.5687C61.752 16.5281 62.2428 15.7003 63.1297 15.0854C64.0403 14.4586 65.1933 14.1452 66.5887 14.1452ZM79.2894 24.1319L79.4845 26.2605C78.4793 26.6863 77.687 26.8991 77.1075 26.8991C76.5281 26.8991 76.0314 26.8282 75.6175 26.6863C75.2036 26.5325 74.8489 26.3078 74.5532 26.0122C73.9028 25.35 73.6427 24.4039 73.7727 23.1741L74.3936 16.469H72.9036L73.0987 14.4645H74.5887L74.8903 11.3071H77.622L77.3204 14.4645H80.2295L80.0344 16.469H77.1075L76.5044 23.0854C76.4098 24.0432 76.7823 24.5222 77.622 24.5222C78.0595 24.5222 78.6153 24.3921 79.2894 24.1319ZM91.3337 21.2761H84.3271C84.3152 21.3588 84.3093 21.4416 84.3093 21.5244C84.3093 21.6072 84.3093 21.69 84.3093 21.7727C84.3093 22.5769 84.4867 23.2273 84.8415 23.724C85.1962 24.2206 85.6693 24.469 86.2605 24.469C87.4786 24.469 88.2177 23.9664 88.4778 22.9612H91.2273C90.9671 24.1201 90.3758 25.0602 89.4534 25.7816C88.5192 26.5266 87.449 26.8991 86.2428 26.8991C84.9302 26.8991 83.8481 26.4024 82.9967 25.4091C82.1098 24.4039 81.6663 23.0676 81.6663 21.4002C81.6663 19.5081 82.1748 17.8526 83.1918 16.4335C84.2679 14.908 85.6811 14.1452 87.4313 14.1452C88.803 14.1452 89.8555 14.6419 90.5887 15.6353C91.2628 16.5222 91.5998 17.6811 91.5998 19.112C91.5998 19.786 91.5111 20.5074 91.3337 21.2761ZM87.1829 16.5577C86.4852 16.5577 85.9058 16.8178 85.4446 17.3381C84.9834 17.8703 84.6759 18.5444 84.5222 19.3603H89.0809C89.0928 19.2775 89.0987 19.1948 89.0987 19.112C89.0987 19.0292 89.0987 18.8873 89.0987 18.6863C89.0987 18.4852 89.0691 18.2487 89.01 17.9767C88.9509 17.7047 88.8503 17.4623 88.7084 17.2495C88.3891 16.7883 87.8807 16.5577 87.1829 16.5577ZM101.782 14.4113L101.462 17.4446C101.131 17.3618 100.735 17.3204 100.274 17.3204C98.5237 17.3204 97.5244 18.639 97.2761 21.2761L96.7794 26.5621H94.0477L95.1829 14.4468H97.9146L97.684 16.8415C98.0861 15.9546 98.565 15.2982 99.1209 14.8725C99.6767 14.4468 100.262 14.2339 100.877 14.2339C101.173 14.2339 101.474 14.2931 101.782 14.4113ZM110.562 10.0654C112.572 10.0654 114.104 10.769 115.156 12.1763C116.256 13.6308 116.676 15.724 116.416 18.4557C116.167 21.211 115.346 23.3337 113.95 24.8237C112.661 26.2073 111 26.8991 108.966 26.8991C106.967 26.8991 105.436 26.1896 104.371 24.7705C103.295 23.316 102.887 21.211 103.147 18.4557C103.396 15.7121 104.212 13.6013 105.595 12.1231C106.861 10.7513 108.516 10.0654 110.562 10.0654ZM113.578 18.4911C113.767 16.67 113.56 15.2628 112.957 14.2694C112.354 13.2761 111.473 12.7794 110.314 12.7794C109.155 12.7794 108.179 13.282 107.387 14.2871C106.606 15.2805 106.128 16.6877 105.95 18.5089C105.773 20.33 105.986 21.7313 106.589 22.7129C107.18 23.6826 108.061 24.1674 109.232 24.1674C110.391 24.1674 111.36 23.6766 112.141 22.6951C112.921 21.7136 113.4 20.3123 113.578 18.4911ZM126.367 9.60422L125.622 11.9279C125.208 11.786 124.841 11.7151 124.522 11.7151C124.203 11.7151 123.907 11.8156 123.635 12.0166C123.363 12.2295 123.198 12.5961 123.139 13.1164L123.014 14.4645H125.001L124.806 16.5044H122.819L121.897 26.5621H119.165L120.088 16.5044H118.509L118.704 14.4645H120.283L120.442 13.0987C120.561 11.857 120.98 10.8991 121.702 10.2251C122.329 9.62196 123.133 9.3204 124.114 9.3204C124.824 9.3204 125.575 9.41501 126.367 9.60422ZM128.478 10.3847H132.38L135.396 19.8747L140.185 10.3847H143.963L142.438 26.5621H139.688L140.806 14.3936L135.786 24.8237H134.03L130.873 13.9856L129.702 26.5621H126.97L128.478 10.3847ZM151.059 19.4845C151.792 19.4845 152.679 19.6323 153.72 19.9279L153.844 18.7927C153.856 18.6744 153.861 18.5621 153.861 18.4557V18.1896C153.861 17.5628 153.725 17.1016 153.453 16.806C153.181 16.4985 152.732 16.3448 152.105 16.3448C151.479 16.3448 150.964 16.4985 150.562 16.806C150.16 17.1135 149.929 17.5333 149.87 18.0654H146.89C147.032 16.6936 147.57 15.6944 148.504 15.0676C149.45 14.4527 150.651 14.1452 152.105 14.1452C155.097 14.1452 156.593 15.4934 156.593 18.1896V18.5089C156.593 18.6271 156.587 18.7513 156.575 18.8814L155.848 26.5621H153.489C153.453 26.2901 153.436 26.024 153.436 25.7639C153.436 25.5037 153.43 25.2317 153.418 24.9479C152.555 26.2487 151.431 26.8991 150.048 26.8991C148.723 26.8991 147.7 26.5621 146.979 25.888C146.317 25.2613 145.986 24.4394 145.986 23.4224C145.986 22.0979 146.5 21.0928 147.529 20.4069C148.404 19.7919 149.581 19.4845 151.059 19.4845ZM153.542 21.8614C152.75 21.6013 152.088 21.4712 151.555 21.4712C151.023 21.4712 150.621 21.5007 150.349 21.5599C150.077 21.6308 149.835 21.7313 149.622 21.8614C149.137 22.1571 148.895 22.5473 148.895 23.0322C148.895 23.517 149.054 23.8954 149.374 24.1674C149.681 24.4512 150.083 24.5931 150.58 24.5931C151.077 24.5931 151.479 24.5222 151.786 24.3803C152.094 24.2384 152.371 24.0432 152.62 23.7949C153.14 23.2864 153.448 22.6419 153.542 21.8614ZM161.063 21.5953C160.365 20.8976 160.017 20.0166 160.017 18.9523C160.017 17.5214 160.555 16.3507 161.631 15.4401C162.648 14.5769 163.824 14.1452 165.161 14.1452C166.107 14.1452 166.97 14.3758 167.751 14.837C167.952 13.891 168.395 13.1223 169.081 12.531C169.743 11.9516 170.506 11.6619 171.369 11.6619L170.979 14.571C169.702 14.571 168.998 15.0262 168.868 15.9368C169.294 16.5754 169.507 17.2672 169.507 18.0122C169.507 18.7572 169.359 19.4254 169.063 20.0166C168.768 20.6079 168.377 21.1105 167.892 21.5244C166.864 22.3758 165.681 22.8016 164.345 22.8016C163.671 22.8016 163.032 22.6892 162.429 22.4645C161.767 22.7247 161.436 23.1445 161.436 23.724C161.436 24.3862 161.956 24.7173 162.997 24.7173H166.598C168.939 24.7173 170.11 25.5687 170.11 27.2716C170.11 28.9036 169.353 30.2635 167.839 31.3514C166.503 32.333 164.989 32.8237 163.298 32.8237C161.548 32.8237 160.153 32.4394 159.112 31.6707C158.166 30.973 157.693 30.0743 157.693 28.9745C157.693 27.7919 158.219 26.9346 159.272 26.4024C159.579 26.2605 159.887 26.1659 160.194 26.1186C159.473 25.5628 159.112 24.9183 159.112 24.1851C159.112 23.452 159.313 22.8725 159.715 22.4468C160.117 22.0211 160.567 21.7373 161.063 21.5953ZM162.713 26.8636C162.074 26.8636 161.53 27.0233 161.081 27.3426C160.62 27.6619 160.389 28.0994 160.389 28.6552C160.389 29.211 160.667 29.6367 161.223 29.9324C161.767 30.228 162.535 30.3758 163.529 30.3758C164.475 30.3758 165.32 30.1452 166.065 29.684C166.941 29.1755 167.378 28.5074 167.378 27.6796C167.378 27.4313 167.295 27.2302 167.13 27.0765C166.964 26.9346 166.722 26.8636 166.402 26.8636H162.713ZM166.775 18.1896C166.775 16.9006 166.136 16.2561 164.859 16.2561C164.185 16.2561 163.659 16.4926 163.28 16.9656C162.914 17.4505 162.731 18.0181 162.731 18.6685C162.731 20.0048 163.351 20.673 164.593 20.673C165.326 20.673 165.87 20.4246 166.225 19.9279C166.592 19.4313 166.775 18.8518 166.775 18.1896ZM172.983 26.5621L174.136 14.4468H176.833L175.697 26.5621H172.983ZM174.136 10.5976C174.196 10.0654 174.391 9.63969 174.722 9.3204C175.041 8.98929 175.467 8.82373 175.999 8.82373C176.519 8.82373 176.909 8.98929 177.17 9.3204C177.43 9.63969 177.536 10.0713 177.489 10.6153C177.453 11.1475 177.27 11.5673 176.939 11.8747C176.608 12.194 176.176 12.3537 175.644 12.3537C175.136 12.3537 174.745 12.194 174.473 11.8747C174.213 11.5673 174.101 11.1415 174.136 10.5976ZM181.161 16.398C181.634 15.724 182.231 15.18 182.952 14.7661C183.674 14.3522 184.448 14.1452 185.276 14.1452C186.104 14.1452 186.778 14.2753 187.298 14.5355C187.819 14.8075 188.256 15.1563 188.611 15.582C189.285 16.4217 189.622 17.4505 189.622 18.6685H186.837C186.778 18.1718 186.612 17.7461 186.34 17.3914C186.08 17.0484 185.684 16.8769 185.152 16.8769C184.194 16.8769 183.467 17.3973 182.97 18.4379C182.592 19.2302 182.402 20.1349 182.402 21.1519C182.402 22.1689 182.598 22.9257 182.988 23.4224C183.39 23.9191 183.898 24.1674 184.513 24.1674C185.14 24.1674 185.619 23.99 185.95 23.6353C186.281 23.2805 186.482 22.8134 186.553 22.2339H189.285C189.143 23.5939 188.646 24.6877 187.795 25.5155C186.849 26.4379 185.66 26.8991 184.229 26.8991C182.905 26.8991 181.823 26.4024 180.983 25.4091C180.085 24.3566 179.635 23.0085 179.635 21.3647C179.635 19.449 180.144 17.7934 181.161 16.398Z" fill="#EEEEE7"/>
</g>
<defs>
<linearGradient id="paint0_linear_12_778" x1="10.4118" y1="0.883728" x2="10.4118" y2="40.7637" gradientUnits="userSpaceOnUse">
<stop stop-color="#DDAE3C"/>
<stop offset="1" stop-color="#41386B"/>
</linearGradient>
<clipPath id="clip0_12_778">
<rect width="189.622" height="39.88" fill="white" transform="translate(0 0.883728)"/>
</clipPath>
</defs>
</svg>
