<svg width="161" height="160" viewBox="0 0 161 160" fill="none" xmlns="http://www.w3.org/2000/svg">
<path d="M80.333 73.3333C83.9997 73.3333 87.1397 72.0267 89.753 69.4133C92.3663 66.8 93.6708 63.6622 93.6663 60C93.6663 56.3333 92.3597 53.1933 89.7463 50.58C87.133 47.9667 83.9952 46.6622 80.333 46.6667C76.6663 46.6667 73.5263 47.9733 70.913 50.5867C68.2997 53.2 66.9952 56.3378 66.9997 60C66.9997 63.6667 68.3063 66.8067 70.9197 69.42C73.533 72.0333 76.6708 73.3378 80.333 73.3333ZM46.9997 140V126.667H73.6663V106C68.2219 104.778 63.3597 102.471 59.0797 99.08C54.7997 95.6889 51.6619 91.44 49.6663 86.3333C41.333 85.3333 34.3597 81.6956 28.7463 75.42C23.133 69.1444 20.3286 61.7822 20.333 53.3333V46.6667C20.333 43 21.6397 39.86 24.253 37.2467C26.8663 34.6333 30.0041 33.3289 33.6663 33.3333H46.9997V20H113.666V33.3333H127C130.666 33.3333 133.806 34.64 136.42 37.2533C139.033 39.8667 140.337 43.0044 140.333 46.6667V53.3333C140.333 61.7778 137.526 69.14 131.913 75.42C126.3 81.7 119.329 85.3378 111 86.3333C109 91.4444 105.86 95.6956 101.58 99.0867C97.2997 102.478 92.4397 104.782 86.9997 106V126.667H113.666V140H46.9997ZM46.9997 72V46.6667H33.6663V53.3333C33.6663 57.5556 34.8886 61.3622 37.333 64.7533C39.7775 68.1444 42.9997 70.56 46.9997 72ZM113.666 72C117.666 70.5556 120.889 68.1378 123.333 64.7467C125.777 61.3556 127 57.5511 127 53.3333V46.6667H113.666V72Z" fill="url(#paint0_linear_392_499)"/>
<defs>
<linearGradient id="paint0_linear_392_499" x1="80.333" y1="20" x2="80.333" y2="140" gradientUnits="userSpaceOnUse">
<stop stop-color="#DDAE3C"/>
<stop offset="1" stop-color="#41386B"/>
</linearGradient>
</defs>
</svg>
