<svg width="161" height="160" viewBox="0 0 161 160" fill="none" xmlns="http://www.w3.org/2000/svg">
<path d="M140.667 146.667H20.6665V133.333H140.667V146.667ZM127.333 126.667H33.9998L74.6665 17.3335C75.9998 14.6668 77.9998 13.3335 80.6665 13.3335L120.667 33.3335H93.3332L127.333 126.667ZM67.3332 50.0002L74.2665 53.1335L77.3332 60.0002L80.4665 53.1335L87.3332 50.0002L80.4665 46.8668L77.3332 40.0002L74.2665 46.8668L67.3332 50.0002ZM87.3332 100L73.5998 93.8002L67.3332 80.0002L61.1332 93.8002L47.3332 100L61.1332 106.2L67.3332 120L73.5998 106.2L87.3332 100ZM93.7998 79.8002L100.667 76.6668L93.7998 73.5335L90.6665 66.6668L87.5998 73.5335L80.6665 76.6668L87.5998 79.8002L90.6665 86.6668L93.7998 79.8002ZM107.133 106.467L114 103.333L107.133 100.2L104 93.3335L100.933 100.2L93.9998 103.333L100.933 106.467L104 113.333L107.133 106.467Z" fill="url(#paint0_linear_392_481)"/>
<defs>
<linearGradient id="paint0_linear_392_481" x1="80.6665" y1="13.3335" x2="80.6665" y2="146.667" gradientUnits="userSpaceOnUse">
<stop stop-color="#DDAE3C"/>
<stop offset="1" stop-color="#41386B"/>
</linearGradient>
</defs>
</svg>
