<svg width="160" height="160" viewBox="0 0 160 160" fill="none" xmlns="http://www.w3.org/2000/svg">
<path d="M49.9999 37.3333L33.3332 46.6666L42.6666 30L33.3332 13.3333L49.9999 22.6666L66.6666 13.3333L57.3332 30L66.6666 46.6666L49.9999 37.3333ZM130 102.667L146.667 93.3333L137.333 110L146.667 126.667L130 117.333L113.333 126.667L122.667 110L113.333 93.3333L130 102.667ZM146.667 13.3333L137.333 30L146.667 46.6666L130 37.3333L113.333 46.6666L122.667 30L113.333 13.3333L130 22.6666L146.667 13.3333ZM88.9332 85.2L105.2 68.9333L91.0666 54.8L74.7999 71.0666L88.9332 85.2ZM95.7999 48.6L111.4 64.2C114 66.6666 114 71 111.4 73.6L33.5999 151.4C30.9999 154 26.6666 154 24.1999 151.4L8.5999 135.8C5.9999 133.333 5.9999 129 8.5999 126.4L86.3999 48.6C88.9999 46 93.3332 46 95.7999 48.6Z" fill="url(#paint0_linear_180_11312)"/>
<defs>
<linearGradient id="paint0_linear_180_11312" x1="76.6582" y1="13.3333" x2="76.6582" y2="153.35" gradientUnits="userSpaceOnUse">
<stop stop-color="#ABAA87"/>
<stop offset="1" stop-color="#416C76"/>
</linearGradient>
</defs>
</svg>
