<svg width="160" height="161" viewBox="0 0 160 161" fill="none" xmlns="http://www.w3.org/2000/svg">
<path d="M40 80.8837C40 84.4199 38.5952 87.8113 36.0947 90.3118C33.5943 92.8123 30.2029 94.217 26.6666 94.217C23.1304 94.217 19.739 92.8123 17.2386 90.3118C14.7381 87.8113 13.3333 84.4199 13.3333 80.8837C13.3333 77.3475 14.7381 73.9561 17.2386 71.4556C19.739 68.9551 23.1304 67.5504 26.6666 67.5504C30.2029 67.5504 33.5943 68.9551 36.0947 71.4556C38.5952 73.9561 40 77.3475 40 80.8837ZM40 80.8837H60C61.7681 80.8837 63.4638 81.5861 64.714 82.8363C65.9643 84.0866 66.6666 85.7823 66.6666 87.5504V127.55C66.6666 129.318 65.9643 131.014 64.714 132.264C63.4638 133.515 61.7681 134.217 60 134.217H40M40 134.217C40 137.753 38.5952 141.145 36.0947 143.645C33.5943 146.146 30.2029 147.55 26.6666 147.55C23.1304 147.55 19.739 146.146 17.2386 143.645C14.7381 141.145 13.3333 137.753 13.3333 134.217C13.3333 130.681 14.7381 127.289 17.2386 124.789C19.739 122.288 23.1304 120.884 26.6666 120.884C30.2029 120.884 33.5943 122.288 36.0947 124.789C38.5952 127.289 40 130.681 40 134.217ZM13.3333 27.5504C13.3333 31.0866 14.7381 34.478 17.2386 36.9785C19.739 39.4789 23.1304 40.8837 26.6666 40.8837C30.2029 40.8837 33.5943 39.4789 36.0947 36.9785C38.5952 34.478 40 31.0866 40 27.5504C40 24.0142 38.5952 20.6228 36.0947 18.1223C33.5943 15.6218 30.2029 14.217 26.6666 14.217C23.1304 14.217 19.739 15.6218 17.2386 18.1223C14.7381 20.6228 13.3333 24.0142 13.3333 27.5504ZM120 67.5504C120 71.0866 121.405 74.478 123.905 76.9785C126.406 79.4789 129.797 80.8837 133.333 80.8837C136.87 80.8837 140.261 79.4789 142.761 76.9785C145.262 74.478 146.667 71.0866 146.667 67.5504C146.667 64.0142 145.262 60.6228 142.761 58.1223C140.261 55.6218 136.87 54.217 133.333 54.217C129.797 54.217 126.406 55.6218 123.905 58.1223C121.405 60.6228 120 64.0142 120 67.5504Z" stroke="url(#paint0_linear_10_6084)" stroke-width="13.3333" stroke-linecap="round" stroke-linejoin="round"/>
<path d="M40 27.5503H86.6667C88.4348 27.5503 90.1305 28.2527 91.3807 29.5029C92.631 30.7532 93.3333 32.4488 93.3333 34.217V100.884C93.3333 102.652 92.631 104.347 91.3807 105.598C90.1305 106.848 88.4348 107.55 86.6667 107.55H73.3333M93.3333 67.5503H120" stroke="url(#paint1_linear_10_6084)" stroke-width="13.3333" stroke-linecap="round" stroke-linejoin="round"/>
<defs>
<linearGradient id="paint0_linear_10_6084" x1="80" y1="14.217" x2="80" y2="147.55" gradientUnits="userSpaceOnUse">
<stop stop-color="#ABAA87"/>
<stop offset="1" stop-color="#416C76"/>
</linearGradient>
<linearGradient id="paint1_linear_10_6084" x1="80" y1="27.5503" x2="80" y2="107.55" gradientUnits="userSpaceOnUse">
<stop stop-color="#ABAA87"/>
<stop offset="1" stop-color="#416C76"/>
</linearGradient>
</defs>
</svg>
