<svg width="160" height="160" viewBox="0 0 160 160" fill="none" xmlns="http://www.w3.org/2000/svg">
<path d="M40.0002 80.0002C40.0002 83.5364 38.5954 86.9278 36.0949 89.4282C33.5944 91.9287 30.203 93.3335 26.6668 93.3335C23.1306 93.3335 19.7392 91.9287 17.2387 89.4282C14.7383 86.9278 13.3335 83.5364 13.3335 80.0002C13.3335 76.4639 14.7383 73.0726 17.2387 70.5721C19.7392 68.0716 23.1306 66.6668 26.6668 66.6668C30.203 66.6668 33.5944 68.0716 36.0949 70.5721C38.5954 73.0726 40.0002 76.4639 40.0002 80.0002ZM40.0002 80.0002H60.0002C61.7683 80.0002 63.464 80.7025 64.7142 81.9528C65.9644 83.203 66.6668 84.8987 66.6668 86.6668V126.667C66.6668 128.435 65.9644 130.131 64.7142 131.381C63.464 132.631 61.7683 133.333 60.0002 133.333H40.0002M40.0002 133.333C40.0002 136.87 38.5954 140.261 36.0949 142.762C33.5944 145.262 30.203 146.667 26.6668 146.667C23.1306 146.667 19.7392 145.262 17.2387 142.762C14.7383 140.261 13.3335 136.87 13.3335 133.333C13.3335 129.797 14.7383 126.406 17.2387 123.905C19.7392 121.405 23.1306 120 26.6668 120C30.203 120 33.5944 121.405 36.0949 123.905C38.5954 126.406 40.0002 129.797 40.0002 133.333ZM13.3335 26.6668C13.3335 30.203 14.7383 33.5944 17.2387 36.0949C19.7392 38.5954 23.1306 40.0002 26.6668 40.0002C30.203 40.0002 33.5944 38.5954 36.0949 36.0949C38.5954 33.5944 40.0002 30.203 40.0002 26.6668C40.0002 23.1306 38.5954 19.7392 36.0949 17.2387C33.5944 14.7383 30.203 13.3335 26.6668 13.3335C23.1306 13.3335 19.7392 14.7383 17.2387 17.2387C14.7383 19.7392 13.3335 23.1306 13.3335 26.6668ZM120 66.6668C120 70.203 121.405 73.5944 123.905 76.0949C126.406 78.5954 129.797 80.0002 133.333 80.0002C136.87 80.0002 140.261 78.5954 142.762 76.0949C145.262 73.5944 146.667 70.203 146.667 66.6668C146.667 63.1306 145.262 59.7392 142.762 57.2387C140.261 54.7383 136.87 53.3335 133.333 53.3335C129.797 53.3335 126.406 54.7383 123.905 57.2387C121.405 59.7392 120 63.1306 120 66.6668Z" stroke="url(#paint0_linear_392_489)" stroke-width="13.3333" stroke-linecap="round" stroke-linejoin="round"/>
<path d="M40 26.667H86.6667C88.4348 26.667 90.1305 27.3694 91.3807 28.6196C92.631 29.8699 93.3333 31.5655 93.3333 33.3337V100C93.3333 101.768 92.631 103.464 91.3807 104.714C90.1305 105.965 88.4348 106.667 86.6667 106.667H73.3333M93.3333 66.667H120" stroke="url(#paint1_linear_392_489)" stroke-width="13.3333" stroke-linecap="round" stroke-linejoin="round"/>
<defs>
<linearGradient id="paint0_linear_392_489" x1="80.0002" y1="13.3335" x2="80.0002" y2="146.667" gradientUnits="userSpaceOnUse">
<stop stop-color="#DDAE3C"/>
<stop offset="1" stop-color="#41386B"/>
</linearGradient>
<linearGradient id="paint1_linear_392_489" x1="80" y1="26.667" x2="80" y2="106.667" gradientUnits="userSpaceOnUse">
<stop stop-color="#DDAE3C"/>
<stop offset="1" stop-color="#41386B"/>
</linearGradient>
</defs>
</svg>
